<svg xmlns="http://www.w3.org/2000/svg"><symbol id="sloth-bg" viewBox="0 0 334.5 357.9"><path fill="#d8c2ab" d="M140.5 63.5A13.6 13.6 0 1 1 127 50a13.5 13.5 0 0 1 13.5 13.5zm40.3-4.6a.5.5 0 0 1-.2.4c-.9 1.6-23.2 37.6-53.6 37.6s-52.7-36-53.6-37.6l-.3-.4a25.6 25.6 0 0 1 .4-18.4c3.5-8.6 11.7-15.6 24.2-20.6 8.4-3.4 16.3-6.2 29.1-6.7h.3c12.8.5 20.8 3.3 29.2 6.7 12.5 5 20.7 12 24.2 20.6a24.7 24.7 0 0 1 .3 18.4zm-14.1 6.8l-8.4-4.4a10.4 10.4 0 0 1-4.3 1 9.9 9.9 0 1 1 9.8-10.8l9.7 5.2a6.4 6.4 0 0 0 .6-1 17.5 17.5 0 0 0-.5-12.5c-2.8-6.7-9.6-12.2-20.1-16.4-7.7-3.1-15-5.7-26.5-6.2s-18.6 3-26.5 6.2C90 31 83.2 36.5 80.4 43.2a16.9 16.9 0 0 0-.5 12.5l.6 1 9.7-5.2a9.8 9.8 0 1 1 9.8 10.8 10.1 10.1 0 0 1-4.3-1l-8.4 4.4c8.4 10 22.9 23.7 39.7 23.7s31.3-13.7 39.7-23.7zm-26.2 253.8A13.6 13.6 0 1 1 127 306a13.5 13.5 0 0 1 13.5 13.5zm40.3-4.6a.5.5 0 0 1-.2.4c-.9 1.6-23.2 37.6-53.6 37.6s-52.7-36-53.6-37.6l-.3-.4a25.6 25.6 0 0 1 .4-18.4c3.5-8.6 11.7-15.6 24.2-20.6 8.4-3.4 16.3-6.2 29.1-6.7h.3c12.8.5 20.8 3.3 29.2 6.7 12.5 5 20.7 12 24.2 20.6a24.7 24.7 0 0 1 .3 18.4zm-14.1 6.8l-8.4-4.4a10.4 10.4 0 0 1-4.3 1 9.9 9.9 0 1 1 9.8-10.8l9.7 5.2a6.4 6.4 0 0 0 .6-1 17.5 17.5 0 0 0-.5-12.5c-2.8-6.7-9.6-12.2-20.1-16.4-7.7-3.1-15-5.7-26.5-6.2s-18.6 3-26.5 6.2c-10.5 4.2-17.3 9.7-20.1 16.4a16.9 16.9 0 0 0-.5 12.5 6.4 6.4 0 0 0 .6 1l9.7-5.2a9.8 9.8 0 1 1 9.8 10.8 10.1 10.1 0 0 1-4.3-1l-8.4 4.4c8.4 10 22.9 23.7 39.7 23.7s31.3-13.7 39.7-23.7zm79-130.2a13.6 13.6 0 1 1-27.1 0 13.6 13.6 0 0 1 27.1 0zm40.3-4.6c-.1.2-.2.3-.2.4s-23.3 37.6-53.7 37.6-52.7-36-53.6-37.6a.5.5 0 0 1-.2-.4 24.7 24.7 0 0 1 .3-18.4c3.5-8.6 11.7-15.6 24.2-20.6 8.4-3.4 16.4-6.2 29.2-6.7h.3c12.8.5 20.7 3.3 29.1 6.7 12.5 5 20.7 12 24.3 20.6a25.9 25.9 0 0 1 .3 18.4zm-14.2 6.8l-8.4-4.4a10.1 10.1 0 0 1-4.3 1 9.9 9.9 0 1 1 9.8-10.8l9.7 5.2.6-1a17.5 17.5 0 0 0-.5-12.5c-2.8-6.7-9.5-12.2-20.1-16.4-7.6-3.1-14.9-5.7-26.5-6.2s-18.5 3-26.5 6.2c-10.5 4.2-17.3 9.7-20.1 16.4a18.1 18.1 0 0 0-.5 12.5l.6 1 9.8-5.2a9.7 9.7 0 0 1 9.7-8.9 9.9 9.9 0 1 1 0 19.7 10.4 10.4 0 0 1-4.3-1l-8.4 4.4c8.4 10 23 23.7 39.7 23.7s31.3-13.7 39.7-23.7z"/></symbol></svg>